# xmcd CD database file
#
# Track frame offsets:
#	150
#	13299
#	36024
#	58635
#	78114
#	97745
#	123178
#	147443
#	173160
#	193305
#	212117
#	229807
#	246924
#	265822
#	290969
#
# Disc length: 4259 seconds
#
# Revision: 1
# Processed by: cddbd v1.5.2PL0 Copyright (c) Steve Scherf et al.
# Submitted via: CDex 1.70beta3
#
DISCID=da10a10f
DTITLE=244 ENDLI-x - I AND 愛
DYEAR=2008
DGENRE=JPop
TTITLE0=朽ち果て
TTITLE1=Let's Get FUNKASY!!!
TTITLE2=深紅なSEPPUN
TTITLE3=Yellow
TTITLE4=Gotta find the way to go!
TTITLE5=Love is the key
TTITLE6=Help Me Help Me…
TTITLE7=春涙
TTITLE8=SPACE kiss
TTITLE9=Silent love
TTITLE10=H/A/P/P/Y
TTITLE11=arco iris
TTITLE12=愛 get 暴動 世界!!!
TTITLE13=Now's the time to change the world!
TTITLE14=Say Anything
EXTD=YEAR: 2008
EXTT0=
EXTT1=
EXTT2=
EXTT3=
EXTT4=
EXTT5=
EXTT6=
EXTT7=
EXTT8=
EXTT9=
EXTT10=
EXTT11=
EXTT12=
EXTT13=
EXTT14=
PLAYORDER=
